<?xml version="1.0" encoding="iso-8859-1"?>
<!-- Generator: Adobe Illustrator 24.2.0, SVG Export Plug-In . SVG Version: 6.00 Build 0)  -->
<svg version="1.1" id="CF_Logo_Full_OL" xmlns="http://www.w3.org/2000/svg" xmlns:xlink="http://www.w3.org/1999/xlink" x="0px"
	 y="0px" width="2000px" height="1200px" viewBox="0 0 2000 1200" enable-background="new 0 0 2000 1200" xml:space="preserve">
<path fill="#1D439B" d="M381.251,594.378c-3.26-0.187-6.059,2.308-6.24,5.571c-0.189,3.26,2.305,6.06,5.566,6.245
	c3.263,0.185,6.061-2.311,6.248-5.571C387.006,597.356,384.514,594.563,381.251,594.378z"/>
<path fill="#1D439B" d="M449.491,599.054c-0.571,10.077,7.164,18.741,17.236,19.318c0.355,0.018,0.707,0.03,1.054,0.03
	c9.689,0,17.712-7.584,18.264-17.271c0.573-10.076-7.157-18.741-17.237-19.313C458.67,581.226,450.065,589.021,449.491,599.054z"/>
<path fill="#1D439B" d="M381.251,594.378c-3.26-0.187-6.059,2.308-6.24,5.571c-0.189,3.26,2.305,6.06,5.566,6.245
	c3.263,0.185,6.061-2.311,6.248-5.571C387.006,597.356,384.514,594.563,381.251,594.378z"/>
<path fill="#1D439B" d="M448.329,492.844c2.916-1.469,4.093-5.028,2.622-7.948c-1.474-2.915-5.029-4.092-7.951-2.619
	c-2.915,1.469-4.089,5.028-2.618,7.945C441.853,493.142,445.408,494.313,448.329,492.844z"/>
<path fill="#1D439B" d="M466.899,525.227c4.513-2.271,6.326-7.77,4.053-12.279c-2.273-4.509-7.773-6.324-12.283-4.053
	c-4.509,2.272-6.325,7.771-4.05,12.281C456.892,525.687,462.389,527.503,466.899,525.227z"/>
<path fill="#1D439B" d="M404.414,547.493c3.48,2.282,8.148,1.313,10.43-2.168c2.279-3.476,1.309-8.145-2.169-10.424
	c-3.482-2.282-8.147-1.311-10.429,2.168C399.964,540.546,400.937,545.215,404.414,547.493z"/>
<path fill="#1D439B" d="M415.54,591.081c-5.04-0.288-9.36,3.567-9.651,8.61c-0.287,5.045,3.57,9.362,8.611,9.653
	c5.044,0.286,9.368-3.57,9.653-8.613C424.439,595.686,420.584,591.365,415.54,591.081z"/>
<path fill="#1D439B" d="M405.413,652.528c-3.713,1.87-5.206,6.401-3.333,10.114c1.87,3.715,6.401,5.206,10.112,3.336
	c3.714-1.875,5.209-6.401,3.335-10.118C413.657,652.149,409.13,650.653,405.413,652.528z"/>
<path fill="#1D439B" d="M440.937,572.19c4.97,3.26,11.641,1.873,14.896-3.099c3.26-4.965,1.873-11.636-3.096-14.891
	c-4.969-3.262-11.637-1.873-14.895,3.092C434.581,562.264,435.969,568.932,440.937,572.19z"/>
<path fill="#1D439B" d="M553.658,524.5c4.224,2.769,9.892,1.589,12.661-2.636c2.771-4.22,1.595-9.889-2.63-12.661
	c-4.221-2.771-9.893-1.594-12.662,2.634C548.256,516.057,549.437,521.729,553.658,524.5z"/>
<path fill="#1D439B" d="M572.42,492.223c2.729,1.793,6.401,1.028,8.193-1.703c1.789-2.734,1.027-6.401-1.705-8.194
	c-2.729-1.794-6.398-1.028-8.194,1.702C568.921,486.763,569.687,490.429,572.42,492.223z"/>
<path fill="#1D439B" d="M555.097,581.63c-10.137-0.589-18.748,7.204-19.316,17.233c-0.573,10.079,7.158,18.744,17.233,19.318
	c0.351,0.019,0.705,0.029,1.054,0.029c9.689,0,17.711-7.583,18.261-17.263c0.279-4.885-1.363-9.584-4.618-13.228
	C564.461,584.067,559.977,581.906,555.097,581.63z"/>
<path fill="#1D439B" d="M472.913,570.923c3.128,6.209,9.395,10.071,16.36,10.071c2.831,0,5.677-0.68,8.223-1.961
	c9.014-4.543,12.652-15.573,8.11-24.587c-3.132-6.214-9.397-10.071-16.36-10.071c-2.831,0-5.677,0.68-8.223,1.958
	C472.01,550.876,468.371,561.904,472.913,570.923z"/>
<path fill="#1D439B" d="M616.41,547.474c3.711-1.872,5.209-6.4,3.336-10.118c-1.874-3.715-6.401-5.206-10.115-3.334
	c-3.715,1.87-5.21,6.4-3.336,10.114C608.169,547.849,612.693,549.342,616.41,547.474z"/>
<path fill="#1D439B" d="M569.985,553.305c-5.31,2.673-7.441,9.143-4.769,14.449c2.675,5.307,9.143,7.438,14.45,4.767
	c5.305-2.675,7.441-9.145,4.769-14.452C581.76,552.764,575.289,550.628,569.985,553.305z"/>
<path fill="#1D439B" d="M510.225,489.464c4.152,0.236,7.71-2.937,7.947-7.093c0.235-4.151-2.939-7.711-7.091-7.946
	c-4.154-0.236-7.714,2.939-7.95,7.093C502.897,485.67,506.07,489.228,510.225,489.464z"/>
<path fill="#1D439B" d="M510.139,536.85c5.932,0.337,11.016-4.2,11.354-10.133c0.337-5.933-4.2-11.02-10.135-11.355
	c-5.929-0.337-11.012,4.198-11.351,10.133C499.67,531.426,504.207,536.51,510.139,536.85z"/>
<path fill="#1D439B" d="M451.839,646.697c5.309-2.675,7.443-9.145,4.772-14.45c-2.676-5.305-9.147-7.443-14.451-4.765
	c-5.306,2.673-7.441,9.138-4.768,14.447C440.067,647.234,446.534,649.368,451.839,646.697z"/>
<path fill="#1D439B" d="M517.095,552.549c-5.536,8.441-3.173,19.81,5.267,25.346c2.993,1.963,6.458,3.001,10.024,3.001
	c6.203,0,11.925-3.09,15.325-8.268c5.533-8.443,3.17-19.816-5.27-25.346c-2.993-1.963-6.457-3.003-10.023-3.003
	C526.216,544.279,520.491,547.371,517.095,552.549z"/>
<path fill="#1D439B" d="M548.915,629.079c-3.131-6.216-9.401-10.074-16.36-10.074c-2.834,0-5.681,0.675-8.227,1.961
	c-4.365,2.2-7.611,5.969-9.142,10.616c-1.535,4.641-1.168,9.601,1.036,13.971c3.128,6.211,9.396,10.071,16.353,10.071
	c2.837,0,5.68-0.677,8.231-1.961C549.819,649.123,553.457,638.091,548.915,629.079z"/>
<path fill="#1D439B" d="M580.886,627.807c-4.965-3.255-11.639-1.868-14.897,3.097c-3.259,4.969-1.868,11.641,3.098,14.898
	c4.97,3.257,11.637,1.873,14.897-3.099C587.243,637.737,585.859,631.065,580.886,627.807z"/>
<path fill="#1D439B" d="M615.933,600.31c0.29-5.043-3.569-9.367-8.615-9.655c-5.04-0.286-9.36,3.568-9.649,8.616
	c-0.289,5.04,3.568,9.362,8.614,9.65C611.323,609.209,615.648,605.348,615.933,600.31z"/>
<path fill="#1D439B" d="M641.248,593.804c-3.267-0.183-6.059,2.309-6.248,5.573c-0.185,3.262,2.309,6.061,5.575,6.245
	c3.261,0.185,6.057-2.309,6.242-5.573C647.006,596.785,644.511,593.988,641.248,593.804z"/>
<path fill="#1D439B" d="M617.411,652.503c-3.481-2.282-8.152-1.31-10.427,2.168c-2.282,3.477-1.312,8.148,2.167,10.429
	c3.477,2.281,8.143,1.311,10.43-2.17C621.857,659.449,620.891,654.785,617.411,652.503z"/>
<path fill="#1D439B" d="M449.407,707.777c-2.732-1.794-6.401-1.03-8.193,1.702c-1.793,2.735-1.031,6.401,1.703,8.194
	c2.732,1.794,6.401,1.027,8.19-1.703C452.902,713.234,452.139,709.568,449.407,707.777z"/>
<path fill="#1D439B" d="M573.494,707.156c-2.915,1.466-4.089,5.024-2.617,7.946c1.468,2.915,5.025,4.089,7.947,2.617
	c2.915-1.471,4.093-5.026,2.621-7.943C579.975,706.858,576.415,705.685,573.494,707.156z"/>
<path fill="#1D439B" d="M504.732,647.446c2.68-4.089,3.611-8.977,2.615-13.762c-0.997-4.785-3.796-8.899-7.885-11.58
	c-2.993-1.963-6.461-3.003-10.028-3.003c-6.197,0-11.925,3.09-15.321,8.271c-2.681,4.089-3.61,8.978-2.611,13.764
	c0.993,4.785,3.795,8.899,7.883,11.58c2.994,1.963,6.459,2.999,10.025,2.999C495.609,655.716,501.335,652.625,504.732,647.446z"/>
<path fill="#1D439B" d="M468.165,675.5c-4.223-2.771-9.89-1.591-12.661,2.631c-2.771,4.225-1.593,9.892,2.631,12.664
	c4.224,2.769,9.895,1.591,12.664-2.633C473.571,683.936,472.387,678.269,468.165,675.5z"/>
<path fill="#1D439B" d="M510.827,710.533c-4.152-0.237-7.711,2.939-7.948,7.091c-0.237,4.156,2.936,7.712,7.091,7.951
	c4.152,0.234,7.714-2.941,7.948-7.095C518.152,714.328,514.979,710.767,510.827,710.533z"/>
<path fill="#1D439B" d="M510.91,663.149c-5.929-0.335-11.016,4.198-11.352,10.131c-0.337,5.932,4.197,11.018,10.13,11.353
	c5.936,0.34,11.019-4.198,11.354-10.13C521.383,668.57,516.845,663.485,510.91,663.149z"/>
<path fill="#1D439B" d="M554.922,674.768c-4.507,2.276-6.322,7.771-4.046,12.284c2.269,4.513,7.769,6.322,12.28,4.05
	c4.512-2.271,6.322-7.77,4.052-12.281C564.935,674.31,559.438,672.496,554.922,674.768z"/>
<g>
	<path fill="#1D439B" d="M702.64,603.728h56.698v12.536h-41.977v21.391h37.836v12.536h-37.836v32.432H702.64V603.728z"/>
	<path fill="#1D439B" d="M763.246,652.375c0-21.736,10.005-31.626,29.786-31.626c19.781,0,29.787,9.891,29.787,31.626
		c0,21.736-10.005,31.627-29.787,31.627C773.251,684.002,763.246,674.111,763.246,652.375z M808.558,653.18v-1.61
		c0-13.111-4.485-19.551-15.526-19.551c-11.155,0-15.525,6.44-15.525,19.551v1.61c0,13.111,4.37,19.551,15.525,19.551
		C804.072,672.731,808.558,666.291,808.558,653.18z"/>
	<path fill="#1D439B" d="M834.775,662.956v-40.827h13.8v38.412c0,8.625,4.255,11.5,11.156,11.5c7.59,0,13.571-6.095,13.571-14.721
		v-35.191h13.8v60.493h-11.385l-1.15-8.05h-0.805c-4.255,5.635-10.696,9.431-19.436,9.431
		C842.71,684.002,834.775,678.366,834.775,662.956z"/>
	<path fill="#1D439B" d="M903.199,622.129h11.386l1.15,8.05h0.805c4.255-5.635,10.695-9.431,19.436-9.431
		c11.5,0,19.551,5.635,19.551,21.046v40.827h-13.801V644.21c0-8.625-4.255-11.501-11.155-11.501c-7.59,0-13.571,6.096-13.571,14.721
		v35.192h-13.801V622.129z"/>
	<path fill="#1D439B" d="M967.369,652.26c0-21.736,9.775-31.512,23.231-31.512c8.281,0,14.491,2.76,18.171,8.396h0.69v-29.671h13.8
		v83.149h-11.385l-1.15-8.05h-0.69c-4.025,6.325-10.811,9.431-18.516,9.431C976.684,684.002,967.369,674.341,967.369,652.26z
		 M1009.461,653.18v-1.38c0-12.305-4.141-19.206-13.801-19.206c-10.235,0-14.031,5.98-14.031,19.091v1.495
		c0,12.996,3.68,18.976,14.031,18.976C1005.436,672.156,1009.461,665.371,1009.461,653.18z"/>
	<path fill="#1D439B" d="M1034.873,666.981c0-16.446,15.756-21.046,37.952-21.046v-5.06c0-5.175-1.84-9.2-10.351-9.2
		c-8.855,0-11.156,3.565-11.156,6.785v1.61h-13.34c-0.115-0.69-0.115-1.495-0.115-2.53c0-10.465,9.891-16.791,24.611-16.791
		c16.331,0,24.151,7.015,24.151,19.091v28.866c0,2.875,1.955,4.025,4.025,4.025h3.68v9.431c-1.495,0.69-4.485,1.725-8.625,1.725
		c-5.98,0-10.12-3.105-11.5-8.166h-0.805c-4.025,4.945-9.89,8.281-19.321,8.281C1047.179,684.002,1034.873,681.702,1034.873,666.981
		z M1072.825,658.471v-2.76c-13.111,0-23.806,1.84-23.806,9.89c0,4.831,3.105,7.36,9.2,7.36
		C1067.42,672.961,1072.825,667.211,1072.825,658.471z"/>
	<path fill="#1D439B" d="M1104.104,668.936v-35.537h-7.36v-11.271h7.59l2.53-16.906h11.041v16.906h10.35v11.271h-10.35v34.156
		c0,3.335,1.61,5.175,4.945,5.175h5.405v9.431c-2.3,0.92-6.44,1.84-9.66,1.84C1107.438,684.002,1104.104,676.411,1104.104,668.936z"
		/>
	<path fill="#1D439B" d="M1139.408,599.473h13.571v13.57h-13.571V599.473z M1139.408,622.129h13.801v60.493h-13.801V622.129z"/>
	<path fill="#1D439B" d="M1165.396,652.375c0-21.736,10.005-31.626,29.786-31.626c19.781,0,29.787,9.891,29.787,31.626
		c0,21.736-10.005,31.627-29.787,31.627C1175.402,684.002,1165.396,674.111,1165.396,652.375z M1210.708,653.18v-1.61
		c0-13.111-4.485-19.551-15.526-19.551c-11.155,0-15.525,6.44-15.525,19.551v1.61c0,13.111,4.37,19.551,15.525,19.551
		C1206.223,672.731,1210.708,666.291,1210.708,653.18z"/>
	<path fill="#1D439B" d="M1237.271,622.129h11.386l1.15,8.05h0.805c4.255-5.635,10.695-9.431,19.436-9.431
		c11.5,0,19.551,5.635,19.551,21.046v40.827h-13.801V644.21c0-8.625-4.255-11.501-11.155-11.501c-7.59,0-13.571,6.096-13.571,14.721
		v35.192h-13.801V622.129z"/>
</g>
<g>
	<path fill="#1D439B" d="M699.535,538.18c0-27.716,14.031-40.827,38.182-40.827c19.666,0,34.847,9.891,34.847,30.477h-15.066
		c0-11.731-8.05-18.056-19.551-18.056c-15.871,0-23.346,9.201-23.346,27.256v2.3c0,18.401,7.36,27.257,23.346,27.257
		c12.19,0,20.126-6.326,20.126-17.826h14.491c0,20.586-14.951,30.247-34.847,30.247C713.565,579.007,699.535,566.587,699.535,538.18
		z"/>
	<path fill="#1D439B" d="M781.068,561.986c0-16.446,15.756-21.046,37.952-21.046v-5.06c0-5.175-1.84-9.201-10.351-9.201
		c-8.855,0-11.156,3.565-11.156,6.785v1.61h-13.34c-0.115-0.69-0.115-1.495-0.115-2.53c0-10.465,9.891-16.791,24.611-16.791
		c16.331,0,24.151,7.015,24.151,19.091v28.866c0,2.875,1.955,4.025,4.025,4.025h3.68v9.43c-1.495,0.69-4.485,1.725-8.625,1.725
		c-5.98,0-10.12-3.105-11.5-8.166h-0.805c-4.025,4.945-9.89,8.281-19.321,8.281C793.374,579.007,781.068,576.707,781.068,561.986z
		 M819.02,553.476v-2.76c-13.111,0-23.806,1.84-23.806,9.891c0,4.83,3.105,7.36,9.2,7.36
		C813.615,567.967,819.02,562.216,819.02,553.476z"/>
	<path fill="#1D439B" d="M849.493,517.134h11.386l1.265,9.545h0.805c2.185-5.75,5.98-10.925,13.571-10.925
		c3.335,0,5.75,1.035,5.75,1.035v12.996h-4.371c-9.43,0-14.605,5.175-14.605,16.331v31.511h-13.801V517.134z"/>
	<path fill="#1D439B" d="M888.132,547.266c0-21.736,9.775-31.511,23.231-31.511c8.281,0,14.491,2.76,18.171,8.395h0.69v-29.671h13.8
		v83.148H932.64l-1.15-8.05h-0.69c-4.025,6.326-10.811,9.431-18.516,9.431C897.448,579.007,888.132,569.347,888.132,547.266z
		 M930.225,548.186v-1.38c0-12.306-4.141-19.206-13.801-19.206c-10.235,0-14.031,5.98-14.031,19.091v1.495
		c0,12.996,3.68,18.976,14.031,18.976C926.199,567.162,930.225,560.376,930.225,548.186z"/>
	<path fill="#1D439B" d="M955.637,561.986c0-16.446,15.756-21.046,37.952-21.046v-5.06c0-5.175-1.84-9.201-10.351-9.201
		c-8.855,0-11.156,3.565-11.156,6.785v1.61h-13.34c-0.115-0.69-0.115-1.495-0.115-2.53c0-10.465,9.891-16.791,24.611-16.791
		c16.331,0,24.151,7.015,24.151,19.091v28.866c0,2.875,1.955,4.025,4.025,4.025h3.68v9.43c-1.495,0.69-4.485,1.725-8.625,1.725
		c-5.98,0-10.12-3.105-11.5-8.166h-0.805c-4.025,4.945-9.89,8.281-19.321,8.281C967.942,579.007,955.637,576.707,955.637,561.986z
		 M993.589,553.476v-2.76c-13.111,0-23.806,1.84-23.806,9.891c0,4.83,3.105,7.36,9.2,7.36
		C988.184,567.967,993.589,562.216,993.589,553.476z"/>
	<path fill="#1D439B" d="M1024.062,517.134h11.386l1.15,8.05h0.805c4.255-5.635,10.695-9.43,19.436-9.43
		c11.5,0,19.551,5.635,19.551,21.046v40.827h-13.801v-38.412c0-8.625-4.255-11.5-11.155-11.5c-7.59,0-13.571,6.095-13.571,14.721
		v35.191h-13.801V517.134z"/>
	<path fill="#1D439B" d="M1088.347,547.381c0-21.736,10.005-31.626,29.786-31.626c19.781,0,29.787,9.89,29.787,31.626
		c0,21.736-10.005,31.626-29.787,31.626C1098.352,579.007,1088.347,569.117,1088.347,547.381z M1133.659,548.186v-1.61
		c0-13.111-4.485-19.551-15.526-19.551c-11.155,0-15.525,6.44-15.525,19.551v1.61c0,13.111,4.37,19.551,15.525,19.551
		C1129.173,567.737,1133.659,561.296,1133.659,548.186z"/>
</g>
</svg>
